<svg width="112" height="100" viewBox="0 0 112 100" fill="none" xmlns="http://www.w3.org/2000/svg">
<g clip-path="url(#clip0_0_1)">
<path d="M50.794 78.904C50.794 78.332 50.684 78.046 50.464 78.046L48.946 78.772C48.946 78.464 48.77 78.244 48.418 78.112L47.89 78.046C47.538 78.046 47.098 78.2 46.57 78.508C46.482 78.288 46.372 78.068 46.24 77.848C46.108 77.628 45.998 77.43 45.91 77.254C45.338 76.154 44.766 74.944 44.194 73.624C43.666 72.26 43.16 70.962 42.676 69.73C42.236 68.498 41.884 67.53 41.62 66.826C41.444 66.254 41.246 65.396 41.026 64.252C40.806 63.108 40.586 61.656 40.366 59.896C40.85 60.204 41.224 60.358 41.488 60.358C41.796 60.358 42.082 59.896 42.346 58.972C42.478 59.148 42.72 59.236 43.072 59.236C43.336 59.236 43.534 59.148 43.666 58.972L44.722 57.388L45.91 57.784H45.976C46.064 57.784 46.152 57.74 46.24 57.652C46.328 57.564 46.46 57.476 46.636 57.388C46.988 57.168 47.252 57.058 47.428 57.058L47.626 57.124C48.726 57.652 49.43 58.62 49.738 60.028C50.53 63.372 51.322 65.044 52.114 65.044C52.906 65.044 53.83 64.208 54.886 62.536C55.414 61.7 55.942 60.732 56.47 59.632C57.042 58.532 57.614 57.3 58.186 55.936C58.274 56.464 58.362 56.728 58.45 56.728C58.67 56.728 59.044 56.178 59.572 55.078C60.144 53.978 61.046 52.46 62.278 50.524C62.982 49.336 63.862 47.994 64.918 46.498C66.018 45.002 67.184 43.462 68.416 41.878C69.648 40.294 70.836 38.798 71.98 37.39C73.168 35.982 74.224 34.772 75.148 33.76C76.072 32.748 76.754 32.088 77.194 31.78C78.866 30.636 80.186 29.536 81.154 28.48C81.11 28.788 81.044 29.074 80.956 29.338C80.912 29.558 80.89 29.712 80.89 29.8C80.89 29.976 80.978 30.064 81.154 30.064L83.002 29.14V29.404C83.002 29.756 83.09 29.932 83.266 29.932C83.398 29.932 83.662 29.734 84.058 29.338C84.454 28.942 84.674 28.656 84.718 28.48L84.586 29.404L86.83 28.084L86.302 29.272C87.006 28.788 87.512 28.546 87.82 28.546C87.996 28.546 88.128 28.656 88.216 28.876C88.304 29.052 88.348 29.228 88.348 29.404C88.348 29.668 88.238 29.976 88.018 30.328C87.798 30.68 87.512 31.098 87.16 31.582C86.896 31.934 86.456 32.462 85.84 33.166C85.268 33.826 84.388 34.816 83.2 36.136C82.012 37.412 80.428 39.194 78.448 41.482C77.92 42.054 77.106 43.066 76.006 44.518C74.906 45.926 73.652 47.576 72.244 49.468C70.88 51.316 69.516 53.186 68.152 55.078C66.788 56.97 65.578 58.686 64.522 60.226C63.466 61.722 62.718 62.844 62.278 63.592L58.186 70.522C57.306 72.018 56.58 73.25 56.008 74.218C55.436 75.142 54.996 75.78 54.688 76.132C54.028 76.924 53.302 77.628 52.51 78.244L51.916 77.914L51.388 78.244L50.794 78.904Z" fill="#34D399"/>
<path d="M61 6.5C87.4014 6.5 108.5 26.8109 108.5 51.5C108.5 76.1891 87.4014 96.5 61 96.5C34.5986 96.5 13.5 76.1891 13.5 51.5C13.5 26.8109 34.5986 6.5 61 6.5Z" stroke="#34D399" stroke-width="7"/>
</g>
<defs>
<clipPath id="clip0_0_1">
<rect width="112" height="100" fill="white"/>
</clipPath>
</defs>
</svg>
