<svg width="88" height="80" viewBox="0 0 88 80" fill="none" xmlns="http://www.w3.org/2000/svg">
<rect width="88" height="80" fill="#1E1E1E"/>
<g clip-path="url(#clip0_0_1)">
<path d="M32.54 65.64C32.54 65.12 32.44 64.86 32.24 64.86L30.86 65.52C30.86 65.24 30.7 65.04 30.38 64.92L29.9 64.86C29.58 64.86 29.18 65 28.7 65.28C28.62 65.08 28.52 64.88 28.4 64.68C28.28 64.48 28.18 64.3 28.1 64.14C27.58 63.14 27.06 62.04 26.54 60.84C26.06 59.6 25.6 58.42 25.16 57.3C24.76 56.18 24.44 55.3 24.2 54.66C24.04 54.14 23.86 53.36 23.66 52.32C23.46 51.28 23.26 49.96 23.06 48.36C23.5 48.64 23.84 48.78 24.08 48.78C24.36 48.78 24.62 48.36 24.86 47.52C24.98 47.68 25.2 47.76 25.52 47.76C25.76 47.76 25.94 47.68 26.06 47.52L27.02 46.08L28.1 46.44H28.16C28.24 46.44 28.32 46.4 28.4 46.32C28.48 46.24 28.6 46.16 28.76 46.08C29.08 45.88 29.32 45.78 29.48 45.78L29.66 45.84C30.66 46.32 31.3 47.2 31.58 48.48C32.3 51.52 33.02 53.04 33.74 53.04C34.46 53.04 35.3 52.28 36.26 50.76C36.74 50 37.22 49.12 37.7 48.12C38.22 47.12 38.74 46 39.26 44.76C39.34 45.24 39.42 45.48 39.5 45.48C39.7 45.48 40.04 44.98 40.52 43.98C41.04 42.98 41.86 41.6 42.98 39.84C43.62 38.76 44.42 37.54 45.38 36.18C46.38 34.82 47.44 33.42 48.56 31.98C49.68 30.54 50.76 29.18 51.8 27.9C52.88 26.62 53.84 25.52 54.68 24.6C55.52 23.68 56.14 23.08 56.54 22.8C58.06 21.76 59.26 20.76 60.14 19.8C60.1 20.08 60.04 20.34 59.96 20.58C59.92 20.78 59.9 20.92 59.9 21C59.9 21.16 59.98 21.24 60.14 21.24L61.82 20.4V20.64C61.82 20.96 61.9 21.12 62.06 21.12C62.18 21.12 62.42 20.94 62.78 20.58C63.14 20.22 63.34 19.96 63.38 19.8L63.26 20.64L65.3 19.44L64.82 20.52C65.46 20.08 65.92 19.86 66.2 19.86C66.36 19.86 66.48 19.96 66.56 20.16C66.64 20.32 66.68 20.48 66.68 20.64C66.68 20.88 66.58 21.16 66.38 21.48C66.18 21.8 65.92 22.18 65.6 22.62C65.36 22.94 64.96 23.42 64.4 24.06C63.88 24.66 63.08 25.56 62 26.76C60.92 27.92 59.48 29.54 57.68 31.62C57.2 32.14 56.46 33.06 55.46 34.38C54.46 35.66 53.32 37.16 52.04 38.88C50.8 40.56 49.56 42.26 48.32 43.98C47.08 45.7 45.98 47.26 45.02 48.66C44.06 50.02 43.38 51.04 42.98 51.72L39.26 58.02C38.46 59.38 37.8 60.5 37.28 61.38C36.76 62.22 36.36 62.8 36.08 63.12C35.48 63.84 34.82 64.48 34.1 65.04L33.56 64.74L33.08 65.04L32.54 65.64Z" fill="#34D399"/>
<circle cx="44" cy="40" r="33.5" stroke="#34D399" stroke-width="7"/>
</g>
<defs>
<clipPath id="clip0_0_1">
<rect width="88" height="80" fill="white"/>
</clipPath>
</defs>
</svg>
